<svg xmlns="http://www.w3.org/2000/svg" xmlns:xlink="http://www.w3.org/1999/xlink" xml:space="preserve" style="shape-rendering:geometricPrecision;text-rendering:geometricPrecision;image-rendering:optimizeQuality;" viewBox="0 0 6.82666 8.533325000000001" x="0px" y="0px" fill-rule="evenodd" clip-rule="evenodd"><defs><style type="text/css">
   
    .fil0 {fill:black}
   
  </style></defs><g><g><path class="fil0" d="M3.41333 4.99996c-0.0367795,0 -0.0666693,-0.0298504 -0.0666693,-0.0666693l1.1811e-005 -3.61449c0,-0.036811 0.0298504,-0.0666614 0.0666535,-0.0666614 0.036815,-2.75591e-005 0.0666693,0.0298543 0.0666693,0.0666732l2.3622e-005 3.61446c0,0.036811 -0.0298898,0.066689 -0.066689,0.066689z"/><path class="fil0" d="M2.14708 4.60793c0.423063,0 0.84611,0.0844606 1.26625,0.253406 0.818067,-0.328969 1.64695,-0.33761 2.46556,-0.0260827l7.87402e-006 -3.47145c-0.809843,-0.321031 -1.63071,-0.315441 -2.44029,0.0166929 -0.0162441,0.00661811 -0.0344449,0.00664173 -0.0505551,0 -0.809563,-0.332161 -1.63042,-0.33774 -2.44042,-0.016685l7.87402e-006 3.47143c0.398189,-0.151531 0.798882,-0.227307 1.19944,-0.227311zm3.7985 0.392031c-0.0085,0 -0.0171102,-0.00165354 -0.0253071,-0.00498425 -0.823315,-0.337831 -1.65833,-0.337795 -2.48167,0 -0.0162441,0.0066063 -0.0344449,0.00663386 -0.0505551,0 -0.823472,-0.337799 -1.65833,-0.337795 -2.48181,0 -0.0205394,0.00842126 -0.0438858,0.00606693 -0.0623583,-0.00632283 -0.0184606,-0.0123819 -0.0295866,-0.0331378 -0.0295866,-0.0553622l0 -3.61449c0,-0.027063 0.0163898,-0.0514016 0.0413858,-0.0616693 0.848488,-0.34811 1.70889,-0.351551 2.55764,-0.0102717 0.848752,-0.34128 1.70903,-0.337839 2.55764,0.0102717 0.0250197,0.0102638 0.041248,0.0346339 0.041248,0.0616811l1.9685e-005 3.61446c0,0.0222205 -0.0109921,0.0430079 -0.0294646,0.0553819 -0.0112205,0.00746063 -0.0241654,0.0113071 -0.0371929,0.0113071z"/><path class="fil0" d="M2.1464 4.21768c0.423626,0 0.847075,0.0756575 1.26693,0.226811 0.687504,-0.247559 1.38528,-0.292638 2.07597,-0.134378l0 -2.67059c-0.638031,-0.195189 -1.26111,-0.161882 -1.90278,0.10139l-0.147913 0.0606417c-0.016248,0.00665354 -0.0344488,0.00666929 -0.0505591,1.5748e-005l-0.147909 -0.0606732c-0.641654,-0.263252 -1.26473,-0.29652 -1.90293,-0.10135l1.9685e-005 2.67054c0.269031,-0.061622 0.53915,-0.0924016 0.809157,-0.0924055zm1.26694 0.364406c-0.00777953,0 -0.0155591,-0.00135827 -0.0230551,-0.00406693 -0.696787,-0.255555 -1.40445,-0.295457 -2.10333,-0.118638 -0.0199843,0.00505118 -0.0411142,0.000610236 -0.0573622,-0.0120276 -0.0160906,-0.0126417 -0.0256969,-0.0320433 -0.0256969,-0.0525984l1.1811e-005 -2.80414c0,-0.028937 0.0187402,-0.0545472 0.0462402,-0.0634331 0.685571,-0.221283 1.35306,-0.191705 2.04056,0.090374l0.122642 0.0502795 0.1225 -0.0502795c0.687657,-0.282094 1.35514,-0.311638 2.04069,-0.090374 0.0275276,0.00887402 0.0461102,0.0345118 0.0461102,0.0634409l7.87402e-006 2.80412c0,0.020563 -0.00945276,0.0399843 -0.0257008,0.0526102 -0.0162362,0.0126102 -0.0373622,0.0170827 -0.0572244,0.0120276 -0.699012,-0.176823 -1.40667,-0.136902 -2.10347,0.118638 -0.00735039,0.00269291 -0.0151378,0.00408268 -0.0229134,0.00406693z"/><path class="fil0" d="M3.41333 5.83321c-0.235,0 -0.429862,-0.174303 -0.462362,-0.400374l-2.52442 0c-0.036815,0 -0.0666969,-0.0298465 -0.0666969,-0.0666693l7.87402e-006 -3.62627c0,-0.0368425 0.0298543,-0.0666654 0.0666614,-0.0666654l0.454465 -2.3622e-005c0.036811,0 0.0666457,0.0298701 0.0666457,0.066689 7.87402e-006,0.036811 -0.0298583,0.0666732 -0.0666654,0.0666732l-0.387764 -1.5748e-005 0 3.49291 2.51972 0c0.036811,0 0.0666496,0.0298898 0.0666496,0.0667047 3.93701e-006,0.184012 0.149724,0.33374 0.333752,0.33374 0.184035,-7.87402e-006 0.333752,-0.149724 0.333752,-0.33374 0,-0.0368307 0.0298622,-0.0666772 0.0666654,-0.0666772l2.51974 -2.75591e-005 0 -3.49291 -0.387909 0c-0.036811,0 -0.0666929,-0.0298465 -0.0666929,-0.0666575 7.87402e-006,-0.0368425 0.0298583,-0.0666654 0.0666654,-0.0666654l0.454591 -2.3622e-005c0.036815,0 0.0666575,0.0298701 0.0666575,0.066689l0 3.62625c0,0.036815 -0.0298583,0.066689 -0.0666654,0.066689l-2.52443 0c-0.0325,0.226063 -0.227516,0.400402 -0.462374,0.400374z"/><path class="fil0" d="M2.06627 2.93508l0.551374 0 0 -0.38178c0,-0.0317205 0.0223543,-0.0590118 0.0534646,-0.065315 0.0881929,-0.0179331 0.152362,-0.0964843 0.152362,-0.186795 1.9685e-005,-0.10511 -0.0855591,-0.19061 -0.190555,-0.19061 -0.00845669,0 -0.0169449,0.000570866 -0.0252795,0.00166929 -0.0195551,0.00258268 -0.0393071,-0.00364173 -0.053752,-0.0169724 -0.0145512,-0.0133189 -0.0224961,-0.0323898 -0.0215236,-0.0520866 0.000161417,-0.00298425 0.000137795,-0.0059685 0.000137795,-0.009 2.3622e-005,-0.10511 -0.0854213,-0.190594 -0.190559,-0.190594 -0.105106,-1.5748e-005 -0.190555,0.0855 -0.190555,0.190594 1.1811e-005,0.00301575 0,0.00601575 0.000141732,0.009 0.000838583,0.0196732 -0.00694882,0.0387677 -0.0215276,0.0520866 -0.0144173,0.0133031 -0.0341693,0.0195551 -0.053752,0.0169724 -0.0083189,-0.0011063 -0.0169449,-0.00166929 -0.0252756,-0.00166929 -0.10498,0 -0.190555,0.0855157 -0.190555,0.19061 1.1811e-005,0.0902992 0.0640276,0.168866 0.152358,0.186795 0.031122,0.00628346 0.0534724,0.033622 0.0534724,0.0653307l2.3622e-005 0.381764zm0.618031 0.133346l-0.68472 0c-0.0367795,0 -0.0666654,-0.0298307 -0.0666654,-0.0666496l1.1811e-005 -0.398913c-0.121937,-0.0478425 -0.205846,-0.167075 -0.205846,-0.301673 0,-0.16911 0.130276,-0.308374 0.295693,-0.322717 0.0265591,-0.152173 0.159583,-0.268217 0.319165,-0.268217 0.159614,-1.9685e-005 0.292638,0.116047 0.319169,0.268217 0.165445,0.0143268 0.295693,0.153606 0.295693,0.322717 0,0.134579 -0.0838858,0.253839 -0.205831,0.301697l1.9685e-005 0.398882c0,0.036811 -0.0298858,0.0666732 -0.066689,0.0666575z"/><path class="fil0" d="M3.06806 3.48893c-0.00262598,0 -0.00527953,-0.000149606 -0.00805512,-0.000484252 -0.476386,-0.0572992 -0.959724,-0.0572913 -1.43611,0 -0.0366457,0.00438976 -0.0697244,-0.0216654 -0.0741654,-0.0582205 -0.00441732,-0.0365787 0.0216654,-0.069748 0.0581969,-0.0741535 0.487106,-0.0585787 0.980969,-0.0585551 1.46806,0 0.0365512,0.00438976 0.0626378,0.0375945 0.058189,0.0741535 -0.00401575,0.0338307 -0.0329134,0.0587087 -0.0661063,0.0587047z"/><path class="fil0" d="M3.06806 3.89808c-0.00262598,0 -0.00527953,-0.000137795 -0.00805512,-0.000456693 -0.476386,-0.0572913 -0.959724,-0.0572913 -1.43611,0 -0.0366457,0.00433465 -0.0697244,-0.0216811 -0.0741654,-0.0582362 -0.00441732,-0.0365551 0.0216654,-0.069752 0.0581969,-0.0741378 0.487106,-0.0585748 0.980969,-0.0585709 1.46806,0 0.0365512,0.0043622 0.0626378,0.0375827 0.058189,0.0741378 -0.00401575,0.0338189 -0.0329134,0.0587205 -0.0661063,0.0586929z"/><path class="fil0" d="M3.8864 2.06533l0 0zm-0.013063 0.075748c-0.0215,0.151409 -0.0482008,0.492209 0.11222,0.673642 0.078622,0.0888583 0.191945,0.128067 0.345555,0.11928 0.0844449,-0.12889 0.107224,-0.246587 0.0694449,-0.359126 -0.0772205,-0.230075 -0.385276,-0.377 -0.52722,-0.433795zm0.417937 0.927378c-0.172374,0 -0.308634,-0.0555433 -0.405854,-0.165669 -0.253862,-0.287677 -0.134445,-0.842815 -0.129169,-0.866303 0.00405512,-0.0182795 0.0155591,-0.0339567 0.0316693,-0.0432953 0.0162598,-0.00935827 0.0355551,-0.0114567 0.0533307,-0.00585827 0.0230551,0.00722047 0.56361,0.181331 0.685697,0.54511 0.0540472,0.16089 0.0188898,0.330559 -0.104445,0.504209 -0.0112283,0.0158071 -0.0288898,0.0259291 -0.0481969,0.0277638 -0.0284685,0.00266535 -0.056248,0.00404331 -0.0830315,0.00404331z"/><path class="fil0" d="M4.36821 3.06471c-0.023063,0 -0.0454331,-0.0119449 -0.0577913,-0.0333307l-0.294146 -0.509386c-0.0183425,-0.031878 -0.00752362,-0.0726575 0.0244213,-0.0910591 0.0318307,-0.0184094 0.0726378,-0.00748819 0.0909724,0.0244016l0.294169 0.509374c0.0184685,0.031874 0.00749606,0.0726535 -0.0244488,0.0910709 -0.0103937,0.00605512 -0.0219409,0.00894488 -0.0331772,0.00892913z"/><path class="fil0" d="M4.63821 2.93399c0.153874,0.00881102 0.266925,-0.0303937 0.345539,-0.119256 0.160429,-0.181402 0.13389,-0.522098 0.112224,-0.673555 -0.142075,0.0569646 -0.45028,0.204335 -0.527224,0.433917 -0.0376339,0.112484 -0.015,0.230126 0.0694606,0.358894zm0.039874 0.134469c-0.026811,0 -0.0546102,-0.00135039 -0.0830827,-0.00404331 -0.0192913,-0.00183465 -0.0369449,-0.0119567 -0.0480551,-0.0277638 -0.123453,-0.173661 -0.158614,-0.343291 -0.104583,-0.504209 0.12222,-0.363799 0.662638,-0.537874 0.685693,-0.54511 0.0177795,-0.00562598 0.0370787,-0.00348425 0.0533346,0.00585827 0.0161339,0.00933071 0.0276378,0.0250433 0.0318031,0.0432953 0.00514173,0.0234724 0.124587,0.57865 -0.129303,0.866303 -0.0972126,0.110106 -0.233472,0.165669 -0.405807,0.165669z"/><path class="fil0" d="M4.60111 3.06471c-0.011248,0 -0.0227835,-0.00287402 -0.0332008,-0.00892913 -0.0319213,-0.0184449 -0.0427756,-0.0591811 -0.0244409,-0.0910709l0.294173 -0.509374c0.0183465,-0.0319055 0.0591614,-0.0428189 0.0909606,-0.0244016 0.0319488,0.0184016 0.0429213,0.0591772 0.0244488,0.0910709l-0.294 0.509362c-0.012378,0.021374 -0.0348898,0.0333583 -0.0579409,0.0333425z"/><path class="fil0" d="M5.21083 3.48893c-0.00277953,0 -0.00541732,-0.000149606 -0.00805512,-0.000484252 -0.476508,-0.0572992 -0.959724,-0.0572913 -1.43625,0 -0.0366614,0.00438976 -0.0697244,-0.0216654 -0.0740276,-0.0582205 -0.00444488,-0.0365787 0.0216654,-0.069748 0.0581929,-0.0741535 0.48711,-0.0585787 0.980972,-0.0585669 1.46792,0 0.0365354,0.00438976 0.0626378,0.0375945 0.0583346,0.0741535 -0.00414173,0.0338307 -0.0329173,0.0587087 -0.0661102,0.0587047z"/><path class="fil0" d="M5.21083 3.89808c-0.00277953,0 -0.00541732,-0.000137795 -0.00805512,-0.000456693 -0.476508,-0.0573228 -0.959724,-0.0573071 -1.43625,0 -0.0366614,0.00433465 -0.0697244,-0.0216811 -0.0740276,-0.0582362 -0.00444488,-0.0365551 0.0216654,-0.069752 0.0581929,-0.0741378 0.48711,-0.0585748 0.980972,-0.0585709 1.46792,0 0.0365354,0.0043622 0.0626378,0.0375827 0.0583346,0.0741378 -0.00414173,0.0338189 -0.0329173,0.0587205 -0.0661102,0.0586929z"/></g></g><text x="0" y="21.82666" fill="#000000" font-size="5px" font-weight="bold" font-family="'Helvetica Neue', Helvetica, Arial-Unicode, Arial, Sans-serif">Created by Maan Icons</text><text x="0" y="26.82666" fill="#000000" font-size="5px" font-weight="bold" font-family="'Helvetica Neue', Helvetica, Arial-Unicode, Arial, Sans-serif">from the Noun Project</text></svg>